<svg width="32" height="32" viewBox="0 0 32 32" fill="none" xmlns="http://www.w3.org/2000/svg">
<mask id="mask0_1252_896" style="mask-type:alpha" maskUnits="userSpaceOnUse" x="4" y="2" width="23" height="29">
<path fill-rule="evenodd" clip-rule="evenodd" d="M4 2.66663H26.7184V30.4622H4V2.66663Z" fill="white"/>
</mask>
<g mask="url(#mask0_1252_896)">
<path fill-rule="evenodd" clip-rule="evenodd" d="M11.1227 4.66663C7.724 4.66663 6 5.97596 6 8.56129V28.1933C6 28.3186 6.072 28.3866 6.132 28.4213C6.192 28.4586 6.28667 28.4853 6.396 28.424L14.9053 23.6506C15.2093 23.4813 15.5813 23.48 15.8867 23.652L24.3227 28.4173C24.4333 28.4813 24.528 28.452 24.588 28.416C24.648 28.38 24.7187 28.312 24.7187 28.1866V8.80529C24.7187 7.78263 24.7187 4.66663 19.6013 4.66663H11.1227ZM6.26533 30.4626C5.872 30.4626 5.47867 30.3573 5.12133 30.1466C4.41867 29.7373 4 29.0053 4 28.1933V8.56129C4 4.81463 6.596 2.66663 11.1227 2.66663H19.6013C24.124 2.66663 26.7187 4.90529 26.7187 8.80529V28.1866C26.7187 29 26.3 29.732 25.596 30.1413C24.8947 30.552 24.0493 30.56 23.34 30.16L15.3933 25.6706L7.37333 30.1693C7.02667 30.364 6.64667 30.4626 6.26533 30.4626V30.4626Z" fill="#3D5499" fill-opacity="0.75"/>
</g>
<path fill-rule="evenodd" clip-rule="evenodd" d="M20.186 17.6379H10.4287C9.87671 17.6379 9.42871 17.1899 9.42871 16.6379C9.42871 16.0859 9.87671 15.6379 10.4287 15.6379H20.186C20.738 15.6379 21.186 16.0859 21.186 16.6379C21.186 17.1899 20.738 17.6379 20.186 17.6379" fill="#3D5499" fill-opacity="0.75"/>
<path fill-rule="evenodd" clip-rule="evenodd" d="M20.186 12.6379H10.4287C9.87671 12.6379 9.42871 12.1899 9.42871 11.6379C9.42871 11.0859 9.87671 10.6379 10.4287 10.6379H20.186C20.738 10.6379 21.186 11.0859 21.186 11.6379C21.186 12.1899 20.738 12.6379 20.186 12.6379" fill="#3D5499" fill-opacity="0.75"/>
</svg>
