<svg width="72" height="24" viewBox="0 0 72 24" fill="none" xmlns="http://www.w3.org/2000/svg">
<path fill-rule="evenodd" clip-rule="evenodd" d="M6.94692 21.5C6.53392 21.5 6.12392 21.37 5.77292 21.114C5.16692 20.67 4.86992 19.937 4.99892 19.199L5.69492 15.189C5.72092 15.04 5.66992 14.889 5.55992 14.783L2.60392 11.943C2.05992 11.422 1.86492 10.652 2.09492 9.937C2.32692 9.214 2.94092 8.697 3.69792 8.589L7.78592 8C7.94392 7.978 8.07992 7.881 8.14792 7.743L9.97492 4.091C10.3119 3.418 10.9919 3 11.7499 3V3C12.5079 3 13.1879 3.418 13.5249 4.091L15.3529 7.742C15.4219 7.881 15.5569 7.978 15.7139 8L19.8019 8.589C20.5589 8.697 21.1729 9.214 21.4049 9.937C21.6349 10.652 21.4389 11.422 20.8949 11.943L17.9389 14.783C17.8289 14.889 17.7789 15.04 17.8049 15.188L18.5019 19.199C18.6299 19.938 18.3329 20.671 17.7259 21.114C17.1109 21.565 16.3099 21.626 15.6309 21.272L11.9779 19.379C11.8349 19.305 11.6639 19.305 11.5209 19.379L7.86792 21.273C7.57592 21.425 7.26092 21.5 6.94692 21.5" fill="#596380" fill-opacity="0.6"/>
<path fill-rule="evenodd" clip-rule="evenodd" d="M30.9469 21.5C30.5339 21.5 30.1239 21.37 29.7729 21.114C29.1669 20.67 28.8699 19.937 28.9989 19.199L29.6949 15.189C29.7209 15.04 29.6699 14.889 29.5599 14.783L26.6039 11.943C26.0599 11.422 25.8649 10.652 26.0949 9.937C26.3269 9.214 26.9409 8.697 27.6979 8.589L31.7859 8C31.9439 7.978 32.0799 7.881 32.1479 7.743L33.9749 4.091C34.3119 3.418 34.9919 3 35.7499 3V3C36.5079 3 37.1879 3.418 37.5249 4.091L39.3529 7.742C39.4219 7.881 39.5569 7.978 39.7139 8L43.8019 8.589C44.5589 8.697 45.1729 9.214 45.4049 9.937C45.6349 10.652 45.4389 11.422 44.8949 11.943L41.9389 14.783C41.8289 14.889 41.7789 15.04 41.8049 15.188L42.5019 19.199C42.6299 19.938 42.3329 20.671 41.7259 21.114C41.1109 21.565 40.3099 21.626 39.6309 21.272L35.9779 19.379C35.8349 19.305 35.6639 19.305 35.5209 19.379L31.8679 21.273C31.5759 21.425 31.2609 21.5 30.9469 21.5" fill="#596380" fill-opacity="0.6"/>
<path fill-rule="evenodd" clip-rule="evenodd" d="M54.9469 21.5C54.5339 21.5 54.1239 21.37 53.7729 21.114C53.1669 20.67 52.8699 19.937 52.9989 19.199L53.6949 15.189C53.7209 15.04 53.6699 14.889 53.5599 14.783L50.6039 11.943C50.0599 11.422 49.8649 10.652 50.0949 9.937C50.3269 9.214 50.9409 8.697 51.6979 8.589L55.7859 8C55.9439 7.978 56.0799 7.881 56.1479 7.743L57.9749 4.091C58.3119 3.418 58.9919 3 59.7499 3V3C60.5079 3 61.1879 3.418 61.5249 4.091L63.3529 7.742C63.4219 7.881 63.5569 7.978 63.7139 8L67.8019 8.589C68.5589 8.697 69.1729 9.214 69.4049 9.937C69.6349 10.652 69.4389 11.422 68.8949 11.943L65.9389 14.783C65.8289 14.889 65.7789 15.04 65.8049 15.188L66.5019 19.199C66.6299 19.938 66.3329 20.671 65.7259 21.114C65.1109 21.565 64.3099 21.626 63.6309 21.272L59.9779 19.379C59.8349 19.305 59.6639 19.305 59.5209 19.379L55.8679 21.273C55.5759 21.425 55.2609 21.5 54.9469 21.5" fill="#596380" fill-opacity="0.6"/>
</svg>
